:SAMPLES-PER-SECOND 30
:FULLY-SPECIFIED
:DEGREES
50
root  -4.40464 40.8476 0.0259899 -11.9519 -84.3787 12.7039
RightUpLeg  6.77671 -2.63387 -2.97379
RightLeg  -2.45595 -24.4564 0.611851
RightFoot  -2.73034 -0.357528 4.49945
RightToes  -3.10096e-008 1.75238e-005 3.56266e-009
Spine  -7.8909 -1.69801 -6.6113
Spine1  10.5254 -2.37092 4.8592
HEad  -16.0677 -1.90877 7.47504
LeftShoulder1  2.80751 -5.01706 -26.8512
LeftArm  -9.64979 2.73708 -35.6306
LeftForeArm  128.43 -67.1095 -151.965
LeftHand  0.604668 -8.52305 -4.67081
RightShoulder  3.14484 5.74199 28.0576
RightArm  -7.63731 -33.8658 43.861
RightForeArm  37.2189 51.0254 10.9599
RightHand  -0.158218 7.28184 -1.80965
LeftUpLeg  3.80311 0.43918 0.982694
LeftLeg  -2.19054 6.90367 -0.71025
LeftFoot  -1.68803 0.207414 -2.29023
LeftToes  4.7633e-008 1.48299e-008 1.30754e-009
51
root  -4.38825 40.8545 0.0193737 -10.8312 -84.2193 11.8626
RightUpLeg  6.52708 -2.5821 -2.89666
RightLeg  -2.61916 -24.7165 0.74375
RightFoot  -2.60384 -0.349352 4.37123
RightToes  -3.10096e-008 1.75238e-005 3.56266e-009
Spine  -7.21007 -1.53313 -7.10994
Spine1  9.81791 -2.32769 5.49508
HEad  -16.4392 -1.67066 7.62149
LeftShoulder1  2.90455 -5.3227 -26.8078
LeftArm  0.135808 3.3187 -31.8318
LeftForeArm  128.177 -60.7943 -158.487
LeftHand  0.894634 -9.30418 -6.58654
RightShoulder  3.03748 5.49505 27.7895
RightArm  -7.57259 -34.7336 43.7867
RightForeArm  38.0653 51.1901 10.9703
RightHand  -0.162446 7.48692 -1.8252
LeftUpLeg  3.48517 0.349127 1.0072
LeftLeg  -2.2879 6.8368 -0.650542
LeftFoot  -1.57956 0.212587 -2.35446
LeftToes  4.7633e-008 1.48299e-008 1.30754e-009
52
root  -4.37748 40.8608 0.0058293 -9.69215 -84.1309 10.9644
RightUpLeg  6.33475 -2.48497 -2.75067
RightLeg  -2.82856 -25.0072 0.855482
RightFoot  -2.47372 -0.343617 4.27929
RightToes  -3.10096e-008 1.75238e-005 3.56266e-009
Spine  -7.04128 -1.56669 -7.96223
Spine1  10.1 -2.61802 6.6386
HEad  -17.8836 -1.03765 7.40344
LeftShoulder1  3.03573 -5.6739 -26.9846
LeftArm  10.6438 3.81526 -28.3183
LeftForeArm  133.802 -53.7031 -163.686
LeftHand  1.5075 -11.8246 -9.68379
RightShoulder  2.94869 5.38836 27.1783
RightArm  -7.11894 -34.151 43.984
RightForeArm  37.6033 49.9485 10.4642
RightHand  -0.184954 7.60298 -2.01477
LeftUpLeg  3.24988 0.304784 1.07287
LeftLeg  -2.42935 6.80029 -0.608495
LeftFoot  -1.39606 0.205389 -2.23006
LeftToes  4.7633e-008 1.48299e-008 1.30754e-009
53
root  -4.35474 40.8701 -0.0146271 -9.17936 -84.1012 10.6204
RightUpLeg  6.20531 -2.42044 -2.68595
RightLeg  -3.04407 -25.0874 0.96899
RightFoot  -2.31694 -0.339725 4.21475
RightToes  -3.10096e-008 1.75238e-005 3.56266e-009
Spine  -7.02225 -1.82851 -8.5309
Spine1  10.7355 -3.02916 7.1784
HEad  -19.1665 -0.949093 7.2625
LeftShoulder1  3.15974 -6.02532 -27.074
LeftArm  21.0224 3.88469 -25.2624
LeftForeArm  137.339 -47.5551 -166.817
LeftHand  2.01441 -13.2606 -11.9929
RightShoulder  2.98376 5.48822 27.1941
RightArm  -7.17062 -33.5356 44.1492
RightForeArm  37.5907 49.5622 10.3053
RightHand  -0.139633 6.9945 -1.66261
LeftUpLeg  3.13744 0.321439 1.14856
LeftLeg  -2.68071 6.75047 -0.659783
LeftFoot  -1.14864 0.206577 -2.23794
LeftToes  4.7633e-008 1.48299e-008 1.30754e-009
54
root  -4.3271 40.8748 -0.0334738 -8.81703 -84.2526 10.3942
RightUpLeg  5.96335 -2.35693 -2.59896
RightLeg  -3.01432 -25.0892 0.965579
RightFoot  -2.21879 -0.342224 4.24867
RightToes  -3.10096e-008 1.75238e-005 3.56266e-009
Spine  -6.80975 -2.08859 -8.19126
Spine1  11.158 -3.22099 6.60336
HEad  -20.3186 -0.33014 7.26704
LeftShoulder1  3.23048 -6.23583 -27.0705
LeftArm  28.5374 4.63794 -23.5914
LeftForeArm  139.831 -43.8285 -168.387
LeftHand  2.42434 -14.1786 -13.7853
RightShoulder  3.08734 5.68103 27.6402
RightArm  -7.46571 -33.4876 44.1397
RightForeArm  38.0665 50.0487 10.4731
RightHand  -0.13736 7.22266 -1.6192
LeftUpLeg  3.01247 0.318642 1.21466
LeftLeg  -2.81146 6.90043 -0.675446
LeftFoot  -1.01241 0.202591 -2.16328
LeftToes  4.7633e-008 1.48299e-008 1.30754e-009
55
root  -4.273 40.8779 -0.060683 -10.0431 -84.4945 11.7251
RightUpLeg  5.66527 -2.38277 -2.67227
RightLeg  -2.89157 -24.8305 0.922206
RightFoot  -2.2009 -0.330361 4.05932
RightToes  -3.10096e-008 1.75238e-005 3.56266e-009
Spine  -7.24891 -2.09974 -8.29777
Spine1  12.6297 -3.30302 6.6641
HEad  -22.351 0.365461 6.71514
LeftShoulder1  3.48347 -6.70581 -28.0695
LeftArm  27.2082 4.59391 -23.6203
LeftForeArm  144.318 -43.8965 -168.605
LeftHand  2.53206 -14.5703 -14.1152
RightShoulder  2.91231 5.29705 27.1082
RightArm  -8.1896 -32.274 45.3477
RightForeArm  37.6849 49.4917 10.268
RightHand  -0.173748 7.53149 -1.92381
LeftUpLeg  2.90904 0.236251 1.13246
LeftLeg  -2.96976 7.2635 -0.706736
LeftFoot  -0.829187 0.201571 -2.13234
LeftToes  4.7633e-008 1.48299e-008 1.30754e-009
56
root  -4.2237 40.881 -0.0886993 -10.1294 -84.4255 11.7935
RightUpLeg  5.63339 -2.4384 -2.69167
RightLeg  -2.93753 -24.8244 1.01069
RightFoot  -2.15955 -0.325775 3.98307
RightToes  -3.10096e-008 1.75238e-005 3.56266e-009
Spine  -6.77621 -2.13946 -7.65397
Spine1  12.3837 -3.12512 5.63757
HEad  -22.6982 -0.76631 6.30854
LeftShoulder1  3.38342 -6.42134 -28.0309
LeftArm  20.5515 4.17717 -25.4828
LeftForeArm  143.175 -47.4059 -167.183
LeftHand  2.17678 -13.3833 -12.8782
RightShoulder  2.99609 5.46889 27.4135
RightArm  -8.61813 -32.6689 45.5944
RightForeArm  37.3095 49.7325 10.3963
RightHand  -0.162313 7.29943 -1.84253
LeftUpLeg  2.80875 0.186537 1.12885
LeftLeg  -2.92627 7.2497 -0.661871
LeftFoot  -0.700213 0.205411 -2.17425
LeftToes  4.7633e-008 1.48299e-008 1.30754e-009
57
root  -4.17635 40.8844 -0.132683 -9.69144 -84.046 11.4029
RightUpLeg  5.54795 -2.41954 -2.63319
RightLeg  -2.9338 -25.2238 1.02557
RightFoot  -2.12695 -0.327588 4.00671
RightToes  -3.10096e-008 1.75238e-005 3.56266e-009
Spine  -6.95642 -2.17482 -7.34246
Spine1  12.6768 -3.03656 5.11671
HEad  -22.8439 -0.648468 7.41521
LeftShoulder1  3.17007 -5.87611 -27.7278
LeftArm  12.6361 1.71964 -28.7925
LeftForeArm  136.714 -54.0459 -163.618
LeftHand  1.70463 -11.5351 -11.1841
RightShoulder  3.14352 5.84312 27.6625
RightArm  -8.97143 -33.1724 45.6526
RightForeArm  37.4779 49.8934 10.4511
RightHand  -0.210245 7.55263 -2.24769
LeftUpLeg  2.56227 0.119194 1.1337
LeftLeg  -2.81485 6.94375 -0.591603
LeftFoot  -0.561894 0.202705 -2.11135
LeftToes  4.7633e-008 1.48299e-008 1.30754e-009
